<?xml version="1.0" encoding="UTF-8" standalone="no"?>
<!-- Created with Inkscape (http://www.inkscape.org/) -->

<svg
   width="4.1191292mm"
   height="4.4975548mm"
   viewBox="0 0 4.1191291 4.4975548"
   version="1.1"
   id="svg1"
   xml:space="preserve"
   sodipodi:docname="bolt-icon.svg"
   inkscape:version="1.4.4 (1:1.4.4+202605061435+dcaf3e7d9e)"
   inkscape:export-filename="spy.svg"
   inkscape:export-xdpi="96"
   inkscape:export-ydpi="96"
   xmlns:inkscape="http://www.inkscape.org/namespaces/inkscape"
   xmlns:sodipodi="http://sodipodi.sourceforge.net/DTD/sodipodi-0.dtd"
   xmlns="http://www.w3.org/2000/svg"
   xmlns:svg="http://www.w3.org/2000/svg"><sodipodi:namedview
     id="namedview1"
     pagecolor="#505050"
     bordercolor="#eeeeee"
     borderopacity="1"
     inkscape:showpageshadow="0"
     inkscape:pageopacity="0"
     inkscape:pagecheckerboard="0"
     inkscape:deskcolor="#505050"
     inkscape:document-units="mm"
     inkscape:zoom="11.313709"
     inkscape:cx="29.565902"
     inkscape:cy="5.9662135"
     inkscape:window-width="1853"
     inkscape:window-height="1011"
     inkscape:window-x="0"
     inkscape:window-y="0"
     inkscape:window-maximized="1"
     inkscape:current-layer="svg1"><inkscape:page
       x="0"
       y="0"
       width="4.1191292"
       height="4.4975548"
       id="page2"
       margin="0"
       bleed="0" /></sodipodi:namedview><defs
     id="defs1"><clipPath
       clipPathUnits="userSpaceOnUse"
       id="clipPath14"><path
         id="path15"
         style="fill:#ffd500;fill-opacity:1;stroke-width:0.999998"
         d="m 1.3499266,0.09713219 c -0.015818,0.0088769 -0.033324,0.02584241 -0.039179,0.03768865 -0.029159,0.0591437 -0.2588585,0.7240204 -0.2544437,0.73654389 0.00701,0.0197321 0.084386,0.0899054 0.1487978,0.13460227 0.1100178,0.076344 0.4567238,0.2498042 0.5312041,0.2659742 0.025598,0.00555 0.036376,-0.00307 0.1235021,-0.1012212 0.08236,-0.092801 0.098875,-0.1067256 0.1185408,-0.1006825 0.1425024,0.044155 0.1912909,0.046171 0.2906501,0.010768 0.022037,-0.00785 0.034418,-0.011656 0.044141,-0.011307 0.02508,-0.028393 0.058049,-0.04942 0.096223,-0.059763 h 0.00201 C 2.5440792,0.97463874 2.663717,0.9492454 2.7669933,0.9316664 2.8523194,0.91729651 2.931618,0.90656292 3.0075476,0.90313072 2.8841422,0.70456943 2.7799073,0.53407082 2.7248435,0.43902183 2.6936116,0.38511886 2.6588575,0.33474268 2.6479637,0.32703272 2.6370699,0.31935403 2.5762476,0.30361145 2.5125591,0.2920361 2.448867,0.28046075 2.2817142,0.24954197 2.1410626,0.22311975 1.3479148,0.07413325 1.3812295,0.07957622 1.3499593,0.09713199 Z M 3.0620821,1.1674898 c -0.070161,0 -0.1544468,0.00942 -0.2519623,0.025844 -0.082245,0.014 -0.1797818,0.033038 -0.2812259,0.058148 v 0.1523698 c 0.078819,-0.026871 0.1572583,-0.054232 0.2321225,-0.069993 0.1036468,-0.02182 0.2037709,-0.033381 0.3010657,-0.033381 0.079337,0 0.1510973,0.011192 0.2147635,0.032843 -0.03367,-0.05326 -0.06732,-0.1068288 -0.1006856,-0.1599075 -0.036396,-0.00362 -0.074202,-0.00592 -0.1140779,-0.00592 z m 0,0.3989613 c -0.078742,10e-7 -0.159769,0.00704 -0.246506,0.025305 -0.087044,0.018325 -0.1830892,0.0471 -0.2832104,0.085607 -0.023226,0.00893 -0.047021,0.01278 -0.07043,0.012384 0.05611,0.3191249 0.1086904,0.6023513 0.1215173,0.6493216 0.00317,0.011723 0.00835,0.027204 0.014876,0.045226 -8.889e-4,-0.0076 -0.00152,-0.015349 -0.00152,-0.023152 V 2.1010914 C 2.5963483,1.9924539 2.6875542,1.9014159 2.7961939,1.90188 h 0.240059 c 0.1158698,0 0.17992,-0.023428 0.2167476,-0.052226 0.041693,-0.032602 0.047117,-0.04002 0.047117,-0.1098355 0,-0.07993 -0.00995,-0.095016 -0.043153,-0.1227574 l -0.00201,-0.00216 C 3.2248764,1.5890203 3.1709069,1.5664479 3.0619968,1.5664479 Z M 3.563528,1.7823532 C 3.552433,1.8920004 3.4986647,1.9927076 3.4172113,2.0564035 3.3210569,2.1316016 3.1912777,2.1678542 3.0362913,2.1678542 H 2.8626946 v 0.1270646 h 0.1735967 c 0.1697857,0 0.315484,0.046116 0.4220868,0.1383712 0.1035612,0.089196 0.1621886,0.2240867 0.1621886,0.3709639 0,0.1588795 -0.055351,0.3008539 -0.1621886,0.3908851 -0.1088228,0.091705 -0.2602646,0.1329872 -0.4434143,0.1329872 -0.1084842,0 -0.2162848,-0.014685 -0.3243774,-0.043072 -0.076515,-0.020096 -0.1541589,-0.057621 -0.2321233,-0.092068 v 0.1679836 c 0.089472,0.028931 0.1799113,0.05395 0.27329,0.070532 0.1085465,0.019275 0.2154855,0.029074 0.3184255,0.029074 0.2450222,0 0.4272678,-0.058418 0.5565007,-0.1679836 0.1292254,-0.109705 0.193436,-0.2582013 0.193436,-0.4571096 0,-0.1438844 -0.034821,-0.2557669 -0.1056461,-0.3456587 C 3.6532844,2.4370175 3.5875727,2.39228 3.5050014,2.3514511 V 2.1129365 c 0.066197,-0.032769 0.1160673,-0.066058 0.1487965,-0.1055283 v -0.00162 c 0.010722,-0.012731 0.020405,-0.02595 0.029264,-0.039838 -0.03558,-0.054136 -0.076045,-0.1162125 -0.1195339,-0.183597 z m -3.22889234,0.3731176 0.00451,0.5319484 c 0.005183,0.5860648 0.015991,0.752464 0.0753922,1.1705017 0.037576,0.2644523 0.15611599,0.8788587 0.17409288,0.902374 v 5.514e-4 c 0.005087,0.00674 0.010615,0.01216 0.0129005,0.013461 h 5.0789e-4 c 0.0184772,0 0.0377969,-0.022712 0.0634907,-0.076453 C 0.72358822,4.5764384 0.81428222,4.4271785 0.86739771,4.3656552 0.9329614,4.289711 1.0037648,4.251893 1.0960495,4.2439745 c 0.080249,-0.00693 0.1811013,0.024904 0.321401,0.1012213 0.191878,0.1043772 0.3610308,0.145754 0.6294106,0.1539851 0.207642,0.00635 0.3029192,-0.0027 0.4945016,-0.045765 C 2.920792,4.3681345 3.2861624,4.240371 3.6900744,4.0517625 3.8442066,3.9797901 3.9480479,3.9434075 4.0918259,3.9101611 4.1854542,3.8885076 4.2030185,3.869144 4.226735,3.76156 4.2764814,3.5359336 4.2872023,3.4439219 4.2877399,3.2398415 L 4.2882478,3.0406301 4.2441065,2.9410247 C 4.2016548,2.8457109 4.08612,2.6326255 3.9718079,2.4333048 c 0.063932,0.1202266 0.094243,0.2576043 0.094243,0.4021918 0,0.2606755 -0.096873,0.4990746 -0.2871774,0.6606281 -0.1882567,0.159609 -0.440796,0.2304391 -0.728609,0.2304391 -0.081525,0 -0.164305,-0.00539 -0.2474984,-0.015614 0.00269,0.00767 0.00394,0.016835 0.00394,0.027998 0,0.034772 -0.032864,0.064379 -0.1314377,0.1179115 -0.09345,0.050739 -0.2214863,0.095341 -0.3303331,0.1152196 -0.091843,0.016733 -0.3175504,0.028812 -0.3967914,0.020998 C 1.7621368,3.9746536 1.466212,3.9072479 1.4342986,3.8762413 1.41493,3.8574051 1.4118192,3.810215 1.4288285,3.7917112 c 0.016557,-0.017973 0.03964,-0.015639 0.1453241,0.013461 0.1705033,0.046947 0.2582932,0.059955 0.4488707,0.065686 0.1880592,0.0057 0.2631258,-0.00105 0.3977836,-0.035536 0.071591,-0.018332 0.2050774,-0.077136 0.2732903,-0.1206037 0.00965,-0.00615 0.018744,-0.011404 0.027277,-0.015614 -0.012161,-0.00196 -0.024054,-0.00376 -0.036204,-0.00592 C 2.5635272,3.671585 2.4453663,3.6406771 2.3275617,3.5995029 2.2475912,3.5724325 2.1928212,3.4965625 2.1926533,3.4121366 V 3.0977001 C 2.1915868,2.9534545 2.35663,2.8544906 2.4837986,2.9216402 h 0.00201 c 0.09358,0.048469 0.1831486,0.082378 0.2713062,0.1055281 0.010242,0.0027 0.020598,0.00516 0.030752,0.00753 -0.010998,-0.013549 -0.024407,-0.035991 -0.04464,-0.072685 C 2.7161976,2.9130304 2.6655972,2.8133502 2.6306163,2.7401786 2.594624,2.664893 2.5530262,2.5933458 2.5348861,2.5754253 2.5098162,2.5506618 2.4901402,2.5247272 2.4009691,2.4887415 2.0329864,2.295966 1.6013853,2.33017 1.2711041,2.5921164 1.1948865,2.6525676 1.1592609,2.7011985 0.99087088,2.9555427 0.82176197,3.2109807 0.80364694,3.2344385 0.77412335,3.2344385 c -0.0231498,0 -0.0515794,-0.035078 -0.0515794,-0.063532 v -5.238e-4 c 8.6341e-4,-0.010233 0.0150489,-0.037929 0.0322395,-0.062456 C 0.77252925,3.0826097 0.84482205,2.9743852 0.91548343,2.8677961 0.98614383,2.7612071 1.0660106,2.6470664 1.093048,2.6142053 1.137727,2.5599003 1.2381696,2.4661759 1.280036,2.4392223 c 0.00432,-0.00277 0.00729,-0.00537 0.00893,-0.00753 l 5.078e-4,-5.375e-4 c 1.153e-4,-2.421e-4 4.064e-4,-0.00138 5.079e-4,-0.00162 L 1.290486,2.428999 c 1.04e-5,-2.542e-4 2.67e-5,-0.00135 0,-0.00162 -6.24e-5,-2.696e-4 -4.063e-4,-0.00133 -5.079e-4,-0.00162 -0.00193,-0.00407 -0.00768,-0.00989 -0.017362,-0.018306 C 1.228776,2.3692792 1.066261,2.2843618 0.97400527,2.2513132 0.81674322,2.194968 0.58432998,2.1571611 0.38625743,2.1560151 Z m 3.49821444,0.041996 c -0.017037,0.012075 -0.035733,0.021189 -0.052079,0.034997 0.040935,0.031597 0.087236,0.050367 0.121021,0.093683 0.016374,0.020779 0.031299,0.042372 0.045139,0.064609 C 3.9068986,2.321539 3.8679595,2.2550934 3.8328539,2.1974678 Z M 2.6350353,2.4774399 c 0.053739,0.1293606 0.1357489,0.3057792 0.1969084,0.4188824 0.027748,0.051321 0.050677,0.1006408 0.052079,0.1109123 0,0.015754 -0.013792,0.03203 -0.031251,0.040919 0.054814,0.00945 0.1087049,0.013998 0.1621886,0.013998 0.1437663,0 0.2257062,-0.031565 0.2713064,-0.069993 0.046905,-0.039528 0.068443,-0.079696 0.068443,-0.1879049 0,-0.094271 -0.015414,-0.1243185 -0.068443,-0.1695989 v -0.00216 C 3.2355023,2.5885786 3.1613511,2.5603546 3.0362913,2.5603546 H 2.7962325 c -0.065583,2.821e-4 -0.124699,-0.032757 -0.1611972,-0.082915 z" /></clipPath></defs><g
     id="g15"
     transform="translate(-11.911934,1.5489126e-4)"
     inkscape:export-filename="muscle.svg"
     inkscape:export-xdpi="96"
     inkscape:export-ydpi="96"><path
       id="path7"
       style="fill:#ffd500;fill-opacity:1;stroke-width:1"
       d="m 12.969751,0.00826823 c -0.01648,0.00852 -0.03472,0.0248035 -0.04082,0.0361735 -0.03038,0.056766 -0.269701,0.6949136 -0.265101,0.7069336 0.0073,0.018939 0.08792,0.0862911 0.15503,0.12919108 0.114626,0.073275 0.475854,0.23976159 0.553454,0.25528159 0.02667,0.00533 0.0379,-0.00295 0.128675,-0.097152 0.08581,-0.0890699 0.103016,-0.10243504 0.123506,-0.0966349 0.148471,0.04238 0.199303,0.0443153 0.302824,0.0103353 0.02296,-0.007536 0.03586,-0.011187 0.04599,-0.0108521 0.02613,-0.0272514 0.06048,-0.0474334 0.100253,-0.0573608 h 0.0021 c 0.138269,-0.033686 0.262918,-0.0580585 0.37052,-0.0749308 0.0889,-0.0137923 0.17152,-0.0240942 0.25063,-0.0273885 -0.128584,-0.1905787 -0.237185,-0.354223 -0.294555,-0.44545085 -0.03254,-0.051736 -0.06875,-0.10008697 -0.0801,-0.10748697 -0.01135,-0.00737 -0.07472,-0.0224797 -0.141076,-0.0335897 -0.06636,-0.01111 -0.240514,-0.0407858 -0.387057,-0.0661458 -0.826369,-0.142997 -0.791659,-0.13777285 -0.824239,-0.12092285 z m 1.78387,1.02732747 c -0.0731,0 -0.160916,0.00904 -0.262516,0.024805 -0.08569,0.013437 -0.187312,0.03171 -0.293005,0.05581 V 1.262455 c 0.08212,-0.025791 0.163845,-0.052052 0.241845,-0.067179 0.107988,-0.020943 0.212306,-0.032039 0.313676,-0.032039 0.08266,0 0.157426,0.010742 0.223759,0.031523 -0.03508,-0.051119 -0.07014,-0.1025341 -0.104903,-0.153479 -0.03792,-0.00347 -0.07731,-0.00568 -0.118856,-0.00568 z m 0,0.3829224 c -0.08204,10e-7 -0.166461,0.00676 -0.256831,0.024288 -0.09069,0.017588 -0.190758,0.045206 -0.295073,0.082165 -0.0242,0.00857 -0.04899,0.012266 -0.07338,0.011886 0.05846,0.3062955 0.113243,0.5781357 0.126607,0.6232178 0.0033,0.011252 0.0087,0.02611 0.0155,0.043408 -9.2e-4,-0.00729 -0.0016,-0.014732 -0.0016,-0.022221 V 1.931665 c -4.87e-4,-0.1042701 0.09455,-0.1916482 0.20774,-0.1912028 h 0.250114 c 0.120723,0 0.187456,-0.022486 0.225826,-0.050126 0.04344,-0.031291 0.04909,-0.038411 0.04909,-0.1054199 0,-0.076717 -0.01037,-0.091196 -0.04496,-0.1178223 l -0.0021,-0.00207 C 14.923234,1.44018 14.867004,1.418515 14.753532,1.418515 Z m 0.522449,0.2072225 c -0.01156,0.1052392 -0.06758,0.2018978 -0.152445,0.263033 -0.100182,0.072175 -0.235397,0.1069702 -0.396875,0.1069702 h -0.180868 v 0.1219564 h 0.180868 c 0.176897,0 0.328698,0.044262 0.439766,0.1328084 0.107899,0.08561 0.168982,0.2150781 0.168982,0.3560506 0,0.1524923 -0.05767,0.2887589 -0.168982,0.3751709 -0.113381,0.088018 -0.271166,0.1276408 -0.461987,0.1276408 -0.113028,0 -0.225344,-0.014094 -0.337964,-0.041341 -0.07972,-0.019288 -0.160616,-0.055304 -0.241846,-0.088367 v 0.1612305 c 0.09322,0.027768 0.187447,0.051781 0.284737,0.067696 0.113093,0.018499 0.224511,0.027905 0.331763,0.027905 0.255285,0 0.445164,-0.056069 0.57981,-0.1612305 0.134638,-0.1052945 0.201538,-0.2478212 0.201538,-0.4387329 0,-0.1381 -0.03628,-0.2454847 -0.110071,-0.3317627 -0.04291,-0.050682 -0.111374,-0.093621 -0.197404,-0.1328085 V 1.9430339 c 0.06897,-0.031452 0.120929,-0.063402 0.155029,-0.1012859 v -0.00155 c 0.01117,-0.012224 0.02126,-0.024911 0.03049,-0.038241 -0.03707,-0.05196 -0.07923,-0.1115411 -0.12454,-0.1762166 z m -3.364136,0.3581176 0.0047,0.5105632 c 0.0054,0.562504 0.01666,0.7222136 0.07855,1.1234456 0.03915,0.253821 0.162655,0.843527 0.181385,0.866097 v 5.168e-4 c 0.0053,0.00647 0.01106,0.01167 0.01344,0.012919 h 5.16e-4 c 0.01925,0 0.03938,-0.0218 0.06615,-0.07338 0.06049,-0.116534 0.154983,-0.2597936 0.210323,-0.3188436 0.06831,-0.072891 0.142079,-0.1091888 0.238229,-0.1167888 0.08361,-0.00665 0.188687,0.023902 0.334863,0.097152 0.199915,0.100181 0.376153,0.1398946 0.655774,0.1477946 0.216339,0.0061 0.315607,-0.00259 0.515214,-0.043925 0.395322,-0.081853 0.775996,-0.2044802 1.196826,-0.3855062 0.160588,-0.069079 0.268779,-0.103999 0.418579,-0.135909 0.09755,-0.020784 0.11585,-0.039368 0.14056,-0.142627 0.05183,-0.216556 0.063,-0.3048686 0.06356,-0.5007446 L 16.03112,2.8334194 15.98513,2.7378184 C 15.9409,2.6463364 15.820526,2.4418173 15.701426,2.2505096 c 0.06661,0.1153933 0.09819,0.2472482 0.09819,0.386023 0,0.2501959 -0.100931,0.479011 -0.299206,0.6340698 -0.196142,0.1531925 -0.459259,0.2211751 -0.759127,0.2211751 -0.08494,0 -0.171187,-0.00517 -0.257865,-0.014986 0.0028,0.00736 0.0041,0.016159 0.0041,0.026872 0,0.033374 -0.03424,0.061791 -0.136943,0.1131714 -0.09736,0.048699 -0.230759,0.091508 -0.344165,0.1105876 -0.09569,0.01606 -0.330851,0.027654 -0.413411,0.020154 -0.193798,-0.017681 -0.502118,-0.082378 -0.535368,-0.1121379 -0.02018,-0.01808 -0.02342,-0.063372 -0.0057,-0.081132 0.01725,-0.01725 0.0413,-0.015011 0.151411,0.012919 0.177645,0.04506 0.269112,0.057545 0.467672,0.063045 0.195936,0.00547 0.274147,-0.00101 0.414445,-0.034107 0.07459,-0.017594 0.213667,-0.074035 0.284737,-0.1157552 0.01006,-0.0059 0.01953,-0.010945 0.02842,-0.014986 -0.01267,-0.00188 -0.02506,-0.00361 -0.03772,-0.00568 -0.126739,-0.020732 -0.249849,-0.050398 -0.372588,-0.089917 -0.08332,-0.025981 -0.140384,-0.098802 -0.140559,-0.1798339 V 2.8881958 c -0.0011,-0.1384465 0.170845,-0.2334319 0.30334,-0.1689819 h 0.0021 c 0.0975,0.046521 0.19082,0.079066 0.28267,0.1012858 0.01067,0.00258 0.02146,0.00495 0.03204,0.00723 -0.01146,-0.013004 -0.02543,-0.034544 -0.04651,-0.069763 -0.02814,-0.047004 -0.08086,-0.1426769 -0.117306,-0.2129069 -0.0375,-0.072259 -0.08084,-0.1409299 -0.09974,-0.1581299 -0.02612,-0.023768 -0.04662,-0.04866 -0.139526,-0.083199 -0.383396,-0.1850256 -0.833075,-0.1521967 -1.17719,0.099219 -0.07941,0.058021 -0.116528,0.1046969 -0.291971,0.3488159 -0.176192,0.245169 -0.195066,0.2676839 -0.225826,0.2676839 -0.02412,0 -0.05374,-0.033668 -0.05374,-0.060978 V 2.957959 c 9.03e-4,-0.00982 0.01568,-0.036404 0.03359,-0.059945 0.01849,-0.024298 0.09381,-0.1281729 0.167431,-0.2304769 0.07362,-0.102304 0.156832,-0.211856 0.185002,-0.243396 0.04655,-0.052122 0.1512,-0.1420784 0.19482,-0.1679484 0.0045,-0.00266 0.0076,-0.00515 0.0093,-0.00723 l 5.17e-4,-5.167e-4 c 1.2e-4,-2.323e-4 4.32e-4,-0.00132 5.16e-4,-0.00155 l 5.17e-4,-5.168e-4 c 1.1e-5,-2.44e-4 2.8e-5,-0.0013 0,-0.00155 -6.5e-5,-2.588e-4 -4.14e-4,-0.00128 -5.17e-4,-0.00155 -0.002,-0.00391 -0.008,-0.00949 -0.01809,-0.01757 -0.04565,-0.036638 -0.214972,-0.1181416 -0.311092,-0.1498616 -0.163849,-0.05408 -0.405997,-0.090367 -0.612366,-0.091467 z m 3.644739,0.040308 c -0.01775,0.01159 -0.03723,0.020337 -0.05426,0.03359 0.04265,0.030327 0.09089,0.048342 0.12609,0.089917 0.01706,0.019944 0.03261,0.040668 0.04703,0.062012 -0.04171,-0.066435 -0.08228,-0.1302094 -0.118856,-0.1855183 z m -1.247986,0.2687174 c 0.05599,0.1241601 0.141435,0.2934864 0.205156,0.4020426 0.02891,0.049258 0.0528,0.096595 0.05426,0.1064535 0,0.015121 -0.01437,0.030742 -0.03256,0.039274 0.05711,0.00907 0.113258,0.013436 0.168982,0.013436 0.149788,0 0.23516,-0.030296 0.28267,-0.067179 0.04887,-0.037939 0.07131,-0.076492 0.07131,-0.1803508 0,-0.090481 -0.01606,-0.1193207 -0.07131,-0.1627807 v -0.00207 C 14.934305,2.3995544 14.857048,2.372465 14.72675,2.372465 h -0.250114 c -0.06833,2.708e-4 -0.129922,-0.03144 -0.167949,-0.079581 z" /><path
       id="path13"
       style="font-size:3.20786px;font-family:'DejaVu Sans Mono';-inkscape-font-specification:'DejaVu Sans Mono';writing-mode:lr-tb;direction:ltr;fill:#827b58;fill-opacity:1;stroke:none;stroke-width:0.0661459;stroke-linecap:butt;stroke-linejoin:bevel"
       sodipodi:type="inkscape:offset"
       inkscape:radius="0.066115782"
       inkscape:original="M 3.2246094 1.3632812 C 3.1483809 1.3632812 3.062092 1.3719643 2.9628906 1.3886719 C 2.8647335 1.4053795 2.7513513 1.4294754 2.625 1.4628906 L 2.625 1.7539062 C 2.7335994 1.7121372 2.8382986 1.6810408 2.9375 1.6601562 C 3.0367014 1.6392718 3.1316733 1.6289063 3.2246094 1.6289062 C 3.3645356 1.6289063 3.4716908 1.6618205 3.546875 1.7265625 C 3.6231034 1.7902602 3.6621094 1.8818672 3.6621094 2.0019531 C 3.6621094 2.1157737 3.6205121 2.2038804 3.5390625 2.2675781 C 3.4576129 2.3312759 3.3443661 2.3632812 3.1992188 2.3632812 L 2.9589844 2.3632812 L 2.9589844 2.6230469 L 3.1992188 2.6230469 C 3.3579408 2.6230469 3.485189 2.6637353 3.578125 2.7441406 C 3.671061 2.8235017 3.7167969 2.9306572 3.7167969 3.0664062 C 3.7167969 3.2136422 3.671061 3.3279331 3.578125 3.40625 C 3.485189 3.4845669 3.3510758 3.5234375 3.1777344 3.5234375 C 3.0754003 3.5234375 2.9725189 3.5095717 2.8691406 3.4824219 C 2.7657623 3.455272 2.6611985 3.4147189 2.5546875 3.359375 L 2.5546875 3.6738281 C 2.6622427 3.7114202 2.7710804 3.7399253 2.8828125 3.7597656 C 2.9945446 3.7796059 3.1053354 3.7890625 3.2128906 3.7890625 C 3.4687258 3.7890625 3.6683969 3.727643 3.8125 3.6054688 C 3.9576473 3.4822502 4.0292969 3.3127667 4.0292969 3.0976562 C 4.0292969 2.9420667 3.9896527 2.8143158 3.9082031 2.7109375 C 3.8267536 2.606515 3.7081886 2.5329123 3.5546875 2.4921875 C 3.691481 2.4566838 3.7961802 2.3961733 3.8671875 2.3105469 C 3.939239 2.2249204 3.9746094 2.1186741 3.9746094 1.9902344 C 3.9746094 1.8012296 3.9063249 1.6489769 3.7695312 1.5351562 C 3.6337822 1.4202915 3.4522505 1.3632812 3.2246094 1.3632812 z "
       d="m 3.2246094,1.296875 c -0.081249,0 -0.1717438,0.010216 -0.2734375,0.027344 -0.1002208,0.017059 -0.2155423,0.040313 -0.34375,0.074219 a 0.06612239,0.06612239 0 0 0 -0.048828,0.064453 v 0.2910156 a 0.06612239,0.06612239 0 0 0 0.089844,0.0625 c 0.1055725,-0.040605 0.2073026,-0.071706 0.3027344,-0.091797 0.095193,-0.020041 0.1854174,-0.029297 0.2734375,-0.029297 0.1295581,1e-7 0.2192545,0.030328 0.2792969,0.082031 0.06081,0.050814 0.091797,0.1188406 0.091797,0.2246094 0,0.097712 -0.030907,0.1606892 -0.097656,0.2128907 -0.066489,0.051998 -0.1634,0.082031 -0.2988281,0.082031 H 2.9589844 a 0.06612239,0.06612239 0 0 0 -0.066406,0.066406 v 0.2597656 a 0.06612239,0.06612239 0 0 0 0.066406,0.066406 h 0.2402344 c 0.1474228,0 0.2572379,0.03738 0.3359375,0.1054688 0.078732,0.067232 0.1152343,0.1505856 0.1152343,0.2714844 0,0.1335443 -0.038363,0.2242829 -0.1152343,0.2890625 -0.077212,0.065066 -0.1939645,0.1015625 -0.3574219,0.1015625 -0.096362,0 -0.1927117,-0.013245 -0.2910156,-0.039063 C 2.788391,3.3921453 2.6884643,3.354055 2.5859375,3.3007813 a 0.06612239,0.06612239 0 0 0 -0.097656,0.058594 v 0.3144531 a 0.06612239,0.06612239 0 0 0 0.044922,0.0625 c 0.1108425,0.038741 0.2227024,0.067437 0.3378907,0.087891 0.115579,0.020523 0.2303662,0.03125 0.3417968,0.03125 0.266417,0 0.4838335,-0.064631 0.6425782,-0.1992188 0.1597665,-0.1356292 0.2402343,-0.3288019 0.2402343,-0.5585937 0,-0.1668204 -0.043384,-0.3117496 -0.1347656,-0.4277344 -0.059334,-0.07607 -0.142678,-0.1304428 -0.234375,-0.1757813 0.075107,-0.037179 0.1416958,-0.08068 0.1914063,-0.140625 C 4.0005045,2.2554296 4.0410156,2.1308123 4.0410156,1.9902344 4.0410156,1.7853052 3.9632617,1.6098179 3.8125,1.484375 3.6627983,1.3577042 3.4632891,1.296875 3.2246094,1.296875 Z"
       transform="matrix(1.0418855,0,0,0.95979835,11.563282,-0.08495909)"
       clip-path="url(#clipPath14)" /><path
       id="text111-5-3"
       style="font-size:3.20786px;font-family:'DejaVu Sans Mono';-inkscape-font-specification:'DejaVu Sans Mono';writing-mode:lr-tb;direction:ltr;fill:#00ff00;fill-opacity:1;stroke:none;stroke-width:0.0661459;stroke-linecap:butt;stroke-linejoin:bevel"
       sodipodi:type="inkscape:offset"
       inkscape:radius="0.066115782"
       inkscape:original="M 3.2246094 1.3632812 C 3.1483809 1.3632812 3.062092 1.3719643 2.9628906 1.3886719 C 2.8647335 1.4053795 2.7513513 1.4294754 2.625 1.4628906 L 2.625 1.7539062 C 2.7335994 1.7121372 2.8382986 1.6810408 2.9375 1.6601562 C 3.0367014 1.6392718 3.1316733 1.6289063 3.2246094 1.6289062 C 3.3645356 1.6289063 3.4716908 1.6618205 3.546875 1.7265625 C 3.6231034 1.7902602 3.6621094 1.8818672 3.6621094 2.0019531 C 3.6621094 2.1157737 3.6205121 2.2038804 3.5390625 2.2675781 C 3.4576129 2.3312759 3.3443661 2.3632812 3.1992188 2.3632812 L 2.9589844 2.3632812 L 2.9589844 2.6230469 L 3.1992188 2.6230469 C 3.3579408 2.6230469 3.485189 2.6637353 3.578125 2.7441406 C 3.671061 2.8235017 3.7167969 2.9306572 3.7167969 3.0664062 C 3.7167969 3.2136422 3.671061 3.3279331 3.578125 3.40625 C 3.485189 3.4845669 3.3510758 3.5234375 3.1777344 3.5234375 C 3.0754003 3.5234375 2.9725189 3.5095717 2.8691406 3.4824219 C 2.7657623 3.455272 2.6611985 3.4147189 2.5546875 3.359375 L 2.5546875 3.6738281 C 2.6622427 3.7114202 2.7710804 3.7399253 2.8828125 3.7597656 C 2.9945446 3.7796059 3.1053354 3.7890625 3.2128906 3.7890625 C 3.4687258 3.7890625 3.6683969 3.727643 3.8125 3.6054688 C 3.9576473 3.4822502 4.0292969 3.3127667 4.0292969 3.0976562 C 4.0292969 2.9420667 3.9896527 2.8143158 3.9082031 2.7109375 C 3.8267536 2.606515 3.7081886 2.5329123 3.5546875 2.4921875 C 3.691481 2.4566838 3.7961802 2.3961733 3.8671875 2.3105469 C 3.939239 2.2249204 3.9746094 2.1186741 3.9746094 1.9902344 C 3.9746094 1.8012296 3.9063249 1.6489769 3.7695312 1.5351562 C 3.6337822 1.4202915 3.4522505 1.3632812 3.2246094 1.3632812 z "
       d="m 3.2246094,1.296875 c -0.081249,0 -0.1717438,0.010216 -0.2734375,0.027344 -0.1002208,0.017059 -0.2155423,0.040313 -0.34375,0.074219 a 0.06612239,0.06612239 0 0 0 -0.048828,0.064453 v 0.2910156 a 0.06612239,0.06612239 0 0 0 0.089844,0.0625 c 0.1055725,-0.040605 0.2073026,-0.071706 0.3027344,-0.091797 0.095193,-0.020041 0.1854174,-0.029297 0.2734375,-0.029297 0.1295581,1e-7 0.2192545,0.030328 0.2792969,0.082031 0.06081,0.050814 0.091797,0.1188406 0.091797,0.2246094 0,0.097712 -0.030907,0.1606892 -0.097656,0.2128907 -0.066489,0.051998 -0.1634,0.082031 -0.2988281,0.082031 H 2.9589844 a 0.06612239,0.06612239 0 0 0 -0.066406,0.066406 v 0.2597656 a 0.06612239,0.06612239 0 0 0 0.066406,0.066406 h 0.2402344 c 0.1474228,0 0.2572379,0.03738 0.3359375,0.1054688 0.078732,0.067232 0.1152343,0.1505856 0.1152343,0.2714844 0,0.1335443 -0.038363,0.2242829 -0.1152343,0.2890625 -0.077212,0.065066 -0.1939645,0.1015625 -0.3574219,0.1015625 -0.096362,0 -0.1927117,-0.013245 -0.2910156,-0.039063 C 2.788391,3.3921453 2.6884643,3.354055 2.5859375,3.3007813 a 0.06612239,0.06612239 0 0 0 -0.097656,0.058594 v 0.3144531 a 0.06612239,0.06612239 0 0 0 0.044922,0.0625 c 0.1108425,0.038741 0.2227024,0.067437 0.3378907,0.087891 0.115579,0.020523 0.2303662,0.03125 0.3417968,0.03125 0.266417,0 0.4838335,-0.064631 0.6425782,-0.1992188 0.1597665,-0.1356292 0.2402343,-0.3288019 0.2402343,-0.5585937 0,-0.1668204 -0.043384,-0.3117496 -0.1347656,-0.4277344 -0.059334,-0.07607 -0.142678,-0.1304428 -0.234375,-0.1757813 0.075107,-0.037179 0.1416958,-0.08068 0.1914063,-0.140625 C 4.0005045,2.2554296 4.0410156,2.1308123 4.0410156,1.9902344 4.0410156,1.7853052 3.9632617,1.6098179 3.8125,1.484375 3.6627983,1.3577042 3.4632891,1.296875 3.2246094,1.296875 Z"
       transform="matrix(1.0418855,0,0,0.95979835,11.393733,-0.33635949)" /></g></svg>
